<svg width="18" height="32" viewBox="0 0 18 32" fill="none" xmlns="http://www.w3.org/2000/svg">
<path d="M1.07738 1.27938C3.3249 4.89902 7.28968 7.94508 10.2519 10.9953C12.2961 13.101 14.3347 15.2116 16.365 17.3299C16.365 17.0043 16.365 16.678 16.365 16.3525C11.0127 21.0697 5.70027 25.847 0.524769 30.7584C-0.159895 31.4081 0.876879 32.4435 1.56015 31.7938C6.72866 26.8746 12.0628 22.1288 17.3424 17.3299C17.6197 17.0777 17.5953 16.6082 17.3424 16.3525C15.28 14.2656 13.2169 12.1795 11.1545 10.0927C8.18742 7.08994 5.16301 3.02737 1.55595 0.800114C1.26042 0.61777 0.892941 0.98316 1.07738 1.27938Z" fill="#D12026"/>
<path d="M1.33171 31.4451C2.91552 28.522 4.14511 25.3873 5.46274 22.3384C6.16138 20.7211 7.85208 18.1256 7.98552 16.3106C8.09171 14.8546 7.027 13.2079 6.48416 11.9078C4.96252 8.26087 3.46813 4.6077 2.05618 0.916796C1.739 0.088212 0.400421 0.430537 0.705026 1.28916C1.88852 4.62166 3.28649 7.87941 4.65512 11.1386C5.1749 12.3772 6.72378 15.2423 6.66999 16.1443C6.55751 18.0173 4.93667 20.5723 4.24292 22.2714C3.03917 25.221 1.69361 28.1511 0.721102 31.1874C0.60443 31.5479 1.15076 31.7791 1.33171 31.4451Z" fill="#D12026"/>
</svg>
