<svg width="461" height="167" viewBox="0 0 461 167" fill="none" xmlns="http://www.w3.org/2000/svg">
<path d="M166.103 119.875H173.399C173.399 122.019 174.167 123.651 175.703 124.771C177.015 125.731 178.775 126.211 180.983 126.211C182.711 126.211 184.151 125.939 185.303 125.395C186.871 124.659 187.655 123.507 187.655 121.939C187.655 119.987 185.895 118.515 182.375 117.523C176.295 115.795 173.015 114.803 172.535 114.547C169.015 112.851 167.255 110.179 167.255 106.531C167.255 103.235 168.615 100.627 171.335 98.7075C173.767 97.0115 176.679 96.1635 180.071 96.1635C184.007 96.1635 187.191 97.0115 189.623 98.7075C192.407 100.659 193.799 103.491 193.799 107.203H186.503C186.311 103.747 184.055 102.019 179.735 102.019C178.359 102.019 177.191 102.307 176.231 102.883C175.111 103.587 174.551 104.595 174.551 105.907C174.551 107.155 175.175 108.067 176.423 108.643C177.383 109.091 180.167 109.907 184.775 111.091C187.463 111.763 189.463 112.531 190.775 113.395C193.559 115.187 194.951 117.747 194.951 121.075C194.951 124.339 193.735 126.963 191.303 128.947C188.743 131.027 185.207 132.067 180.695 132.067C176.567 132.067 173.175 131.091 170.519 129.139C167.543 126.931 166.071 123.843 166.103 119.875ZM222.283 115.171H215.611C215.163 112.323 213.483 110.899 210.571 110.899C208.587 110.899 207.067 111.779 206.011 113.539C205.179 115.011 204.763 116.819 204.763 118.963C204.763 121.043 205.179 122.787 206.011 124.195C207.003 125.923 208.475 126.787 210.427 126.787C213.563 126.787 215.371 125.107 215.851 121.747H222.427C222.011 125.011 220.731 127.523 218.587 129.283C216.475 131.043 213.771 131.923 210.475 131.923C206.763 131.923 203.739 130.739 201.403 128.371C199.099 126.003 197.947 122.947 197.947 119.203C197.947 115.235 199.051 112.035 201.259 109.603C203.563 107.043 206.683 105.763 210.619 105.763C213.755 105.763 216.379 106.531 218.491 108.067C220.827 109.795 222.091 112.163 222.283 115.171ZM241.734 121.651V119.107C241.19 119.587 240.006 119.955 238.182 120.211C236.102 120.531 234.726 120.835 234.054 121.123C232.71 121.731 232.038 122.755 232.038 124.195C232.038 126.307 233.43 127.363 236.214 127.363C239.894 127.363 241.734 125.459 241.734 121.651ZM232.806 114.067H225.99C226.182 111.123 227.478 108.947 229.878 107.539C231.862 106.355 234.454 105.763 237.654 105.763C244.918 105.763 248.55 108.115 248.55 112.819V125.731C248.55 128.483 248.838 130.323 249.414 131.251H242.502C242.214 130.355 242.054 129.555 242.022 128.851C240.07 130.899 237.286 131.923 233.67 131.923C231.174 131.923 229.174 131.315 227.67 130.099C226.038 128.787 225.222 126.915 225.222 124.483C225.222 121.955 226.102 120.067 227.862 118.819C229.142 117.955 231.078 117.331 233.67 116.947C237.35 116.435 239.222 116.163 239.286 116.131C240.918 115.715 241.734 114.899 241.734 113.683C241.734 112.339 241.286 111.411 240.39 110.899C239.75 110.515 238.726 110.323 237.318 110.323C234.534 110.323 233.03 111.571 232.806 114.067ZM254.032 131.251V96.9795H260.848V131.251H254.032ZM289.735 120.499H271.831C272.023 124.691 274.055 126.787 277.927 126.787C279.239 126.787 280.423 126.435 281.479 125.731C282.471 125.123 283.079 124.403 283.303 123.571H289.303C287.479 129.139 283.607 131.923 277.687 131.923C273.815 131.923 270.727 130.723 268.423 128.323C266.151 125.891 265.015 122.739 265.015 118.867C265.015 115.091 266.183 111.971 268.519 109.507C270.887 107.011 273.943 105.763 277.687 105.763C281.719 105.763 284.839 107.267 287.047 110.275C289.095 113.027 289.991 116.435 289.735 120.499ZM271.831 116.179H282.919C282.279 112.659 280.471 110.899 277.495 110.899C275.575 110.899 274.103 111.539 273.079 112.819C272.311 113.779 271.895 114.899 271.831 116.179Z" fill="#D12026"/>
<path d="M169.559 58.1618C169.828 57.2226 170.613 57.3745 171.122 57.2486C191.127 52.3036 211.386 49.2069 232.043 49.5918C253.348 49.9889 274.297 53.1799 294.951 58.3463C312.561 62.7512 329.709 68.4764 346.03 76.5072C355.062 80.9512 363.698 86.0306 371.294 92.713C375.064 96.0298 378.433 99.7063 380.904 104.119C385.853 112.956 384.94 121.793 378.295 129.443C374.313 134.026 369.393 137.405 364.102 140.267C352.693 146.438 340.419 150.271 327.911 153.405C306.001 158.895 283.696 161.972 261.242 164.064C237.163 166.307 213.028 167.253 188.849 166.833C168.852 166.487 148.907 165.309 129.156 161.973C115.513 159.669 102.066 156.595 89.5933 150.293C85.1733 148.06 81.0673 145.363 77.592 141.785C70.3112 134.288 69.049 125.184 74.1024 116.028C77.7247 109.464 83.0781 104.473 89.0239 100.086C101.511 90.8732 115.53 84.7175 130.136 79.8059C152.631 72.2421 175.803 68.2311 199.455 66.8044C211.386 66.0847 223.315 66.0869 235.261 66.552C247.473 67.0275 259.596 68.3348 271.687 69.9833C274.549 70.3733 277.388 70.9879 280.268 71.3103C280.749 71.3643 281.306 71.3068 281.455 72.0253C280.612 72.5772 279.629 72.2988 278.694 72.1961C272.992 71.5709 267.307 70.7503 261.593 70.2904C219.184 66.8761 177.278 69.0104 136.418 82.0535C121.863 86.6996 107.869 92.6134 95.1826 101.282C89.5051 105.162 84.2642 109.539 80.2483 115.212C78.5268 117.644 77.1455 120.251 76.4554 123.166C75.13 128.765 76.8576 133.509 80.6958 137.582C85.501 142.681 91.5989 145.745 97.9868 148.285C109.229 152.756 120.991 155.224 132.901 157.011C159.582 161.014 186.447 161.791 213.368 161.265C241.548 160.716 269.609 158.62 297.465 154.205C314.628 151.484 331.612 147.963 347.971 141.932C355.859 139.024 363.482 135.567 370.141 130.297C372.133 128.721 373.945 126.965 375.484 124.942C379.57 119.571 380.168 113.841 377.18 107.776C375.074 103.499 371.952 100.014 368.433 96.8776C359.694 89.0899 349.55 83.5501 338.988 78.7269C322.396 71.1497 305.072 65.7623 287.328 61.6401C270.286 57.6809 253.034 55.1655 235.577 54.1018C221.2 53.2259 206.882 54.0862 192.6 55.8017C185.049 56.7086 177.521 57.8303 169.926 58.34C169.831 58.3466 169.73 58.2483 169.559 58.1618Z" fill="black"/>
<path d="M400.137 115.574C399.15 115.256 398.215 114.517 398.039 113.449C395.544 110.337 401.815 106.323 403.75 104.303C408.121 100.867 412.355 96.8344 417.775 95.1677C413.293 97.6728 410.049 101.814 406.216 105.157C404.078 107.258 401.53 109.058 399.879 111.591C412.446 108.678 425.222 106.687 437.829 103.939C442.189 103.013 456.978 99.9218 460.272 102.384C460.265 102.489 460.183 102.533 460.107 102.59C460.412 101.529 456.573 102.424 455.929 102.456C451.64 103.244 447.409 104.299 443.149 105.223C430.283 108.006 417.325 110.334 404.424 112.947C413.604 115.114 422.776 117.821 431.313 121.86C432.643 122.713 431.374 124.562 430.023 124.052C419.994 121.503 409.968 118.805 400.137 115.574Z" fill="black"/>
<path d="M60.2237 111.473C61.2104 111.156 62.1452 110.417 62.3216 109.348C64.8162 106.237 58.5449 102.222 56.6105 100.202C52.2397 96.7661 48.0058 92.7338 42.5853 91.0671C47.0669 93.5722 50.3113 97.7132 54.1445 101.056C56.2825 103.157 58.8303 104.957 60.4812 107.491C47.9141 104.578 35.1387 102.587 22.5315 99.8387C18.1715 98.9124 3.38285 95.8212 0.0885979 98.2839C0.0955954 98.3887 0.177107 98.4322 0.253246 98.4898C-0.0521349 97.4285 3.78783 98.3235 4.43104 98.3555C8.72002 99.1435 12.9509 100.199 17.2113 101.122C30.0775 103.906 43.0354 106.233 55.9362 108.846C46.756 111.014 37.5842 113.721 29.0473 117.759C27.7175 118.613 28.9866 120.461 30.3375 119.951C40.3664 117.402 50.3922 114.705 60.2237 111.473Z" fill="black"/>
<path d="M111.758 60.4425C109.875 57.3582 114.997 58.0545 116.664 58.2113C120.23 58.5366 123.778 59.035 127.342 59.3737C115.568 53.5298 104.728 46.0524 93.2114 39.7479C93.7677 40.4509 94.6899 41.3598 93.4071 40.3172C92.9154 40.0048 91.8681 39.0735 93.156 39.1662C105.595 42.7276 115.74 51.1409 127.269 56.698C125.862 51.5661 124.635 46.3522 123.026 41.2911C126.067 46.5782 128.385 52.2991 130.055 58.1606C131.113 58.627 132.109 59.8455 131.249 60.9491C129.187 62.6223 126.033 61.8548 123.542 61.983C121.253 61.9049 118.91 61.723 116.674 61.5165C115.045 61.2844 113.154 61.413 111.758 60.4425Z" fill="black"/>
<path d="M296.19 37.6005C296.034 37.1441 296.078 36.6675 296.215 36.2127C290.159 31.9046 286.417 25.0932 281.598 19.5527C287.148 23.7645 291.571 29.2058 296.76 33.8017C297.889 28.4868 298.759 23.0095 299.933 17.7297C300.662 13.7868 302.091 9.91426 302.297 5.94351C302.077 6.20843 301.985 6.59057 301.885 6.90225C301.881 6.75714 301.9 6.59482 301.925 6.45219C303.456 2.49895 302.563 14.8158 302.335 15.3973C301.66 21.5596 300.355 27.6256 299.177 33.7058C301.244 32.1472 303.216 30.4657 305.279 28.9027C306.459 28.0675 308.816 25.857 309.719 28.085C309.668 30.3636 306.223 31.974 304.741 33.5079C303.062 34.4765 297.531 40.7574 296.19 37.6005Z" fill="black"/>
</svg>
