<svg width="74" height="36" viewBox="0 0 74 36" fill="none" xmlns="http://www.w3.org/2000/svg">
<path d="M1.90803 15.5576C12.3988 19.8247 23.1187 22.0842 34.488 20.9232C44.7188 19.8781 53.4211 16.1507 61.9864 10.9528C58.5878 10.6478 55.2312 9.74611 52.4671 8.05945C50.5387 6.88272 52.0289 3.94961 54.1253 4.56272C59.4347 6.11383 63.8459 7.16766 69.4288 6.73112C71.0256 6.60558 71.6237 8.63377 70.9818 9.77033C68.4015 14.3387 65.9217 19.049 62.473 23.0368C61.6881 23.9446 59.9892 22.8489 60.4836 21.7588C61.5257 19.4656 62.7205 17.2487 63.9158 15.0297C46.2936 27.347 19.3144 28.2556 1.24996 16.9443C0.524548 16.4892 1.07713 15.2196 1.90803 15.5576Z" fill="#1D1D1B"/>
<path d="M21.7446 28.23C31.892 28.7484 41.6414 27.5133 51.2278 24.1144C51.3941 24.0557 51.501 24.3446 51.335 24.4094C41.8453 28.1158 31.879 29.8217 21.6979 29.0876C21.1488 29.0475 21.191 28.2022 21.7446 28.23Z" fill="#1D1D1B"/>
</svg>
